<?xml version="1.0" standalone="no"?>
<!DOCTYPE svg PUBLIC "-//W3C//DTD SVG 20010904//EN"
 "http://www.w3.org/TR/2001/REC-SVG-20010904/DTD/svg10.dtd">
<svg version="1.0" xmlns="http://www.w3.org/2000/svg"
 width="1080.000000pt" height="1080.000000pt" viewBox="0 0 1080.000000 1080.000000"
 preserveAspectRatio="xMidYMid meet">

<g transform="translate(0.000000,1080.000000) scale(0.100000,-0.100000)"
fill="#000000" stroke="none">
<path d="M6031 7525 c3 -12 20 -22 52 -30 183 -47 180 -302 -8 -585 -36 -54
-46 -77 -43 -102 l3 -33 53 70 c29 39 74 114 101 167 140 276 90 497 -119 525
-37 5 -42 4 -39 -12z"/>
<path d="M6178 5369 c-27 -16 -77 -50 -112 -77 -35 -27 -86 -57 -113 -67 -111
-40 -155 -72 -82 -61 81 12 164 46 224 91 55 42 142 132 134 139 -2 2 -25 -10
-51 -25z"/>
<path d="M5678 5077 c-10 -7 -21 -41 -27 -84 -15 -97 -14 -123 3 -123 10 0 17
17 21 58 4 31 10 80 15 107 4 28 7 51 6 52 -1 2 -10 -3 -18 -10z"/>
<path d="M4661 4566 c-45 -25 -63 -84 -41 -140 8 -22 4 -30 -27 -61 -34 -34
-35 -38 -31 -90 8 -92 66 -135 183 -135 32 0 62 7 83 20 30 19 35 19 62 5 16
-8 41 -15 57 -15 26 0 25 1 -15 27 -40 26 -42 29 -35 63 5 19 7 55 7 80 -1 25
3 48 10 52 6 4 -11 8 -39 8 -37 -1 -46 -3 -33 -10 33 -20 48 -130 18 -130 -13
0 -154 127 -179 161 -13 17 -26 48 -28 70 -5 33 -1 42 25 69 19 18 41 30 57
30 33 0 84 -49 86 -82 1 -16 4 -12 9 12 10 52 -23 80 -93 80 -29 -1 -63 -7
-76 -14z m-5 -199 c3 -8 46 -49 95 -92 l90 -79 -23 -17 c-76 -58 -202 -6 -215
88 -8 60 36 143 53 100z"/>
<path d="M5243 4565 c-28 -20 -48 -82 -36 -113 5 -13 46 -61 91 -106 89 -90
98 -113 62 -159 -38 -48 -118 -43 -142 8 -15 33 -30 32 -26 -2 4 -36 38 -53
106 -53 46 0 58 4 83 29 24 24 29 38 29 77 0 45 -3 49 -86 135 -97 99 -107
125 -60 166 42 36 97 26 116 -20 7 -19 9 -16 9 16 l1 37 -63 0 c-40 0 -70 -6
-84 -15z"/>
<path d="M1488 4563 c17 -7 17 -384 0 -401 -9 -9 -2 -12 32 -12 34 0 41 3 32
12 -9 9 -12 68 -12 205 l0 193 49 0 c74 0 106 -31 106 -100 0 -44 -4 -55 -28
-76 -18 -15 -41 -24 -65 -25 -33 0 -35 -1 -15 -11 32 -16 92 0 125 32 23 24
28 37 28 80 0 44 -4 56 -29 81 -29 28 -31 29 -133 28 -57 0 -97 -3 -90 -6z"/>
<path d="M1950 4511 c-54 -4 -90 -9 -82 -14 17 -11 17 -318 0 -335 -9 -9 14
-12 104 -12 l116 0 11 31 10 30 -30 -25 c-26 -22 -40 -26 -95 -26 l-64 0 0 81
0 81 65 -4 c53 -2 65 0 65 12 0 12 -12 14 -65 12 l-65 -4 0 81 0 81 68 0 c40
0 73 -5 80 -12 9 -9 12 -7 12 10 0 15 -6 21 -17 20 -10 -1 -61 -4 -113 -7z"/>
<path d="M3080 4496 c0 -16 3 -17 12 -8 13 13 198 17 198 5 0 -5 -50 -82 -110
-173 l-110 -165 142 -3 c126 -2 144 0 155 15 20 27 15 38 -8 17 -17 -16 -40
-20 -131 -22 -90 -3 -109 -1 -102 10 4 7 56 86 116 175 59 90 108 164 108 165
0 2 -61 3 -135 3 -127 0 -135 -1 -135 -19z"/>
<path d="M3481 4485 c0 -17 3 -23 6 -15 3 8 11 18 17 22 12 9 196 11 196 3 0
-3 -49 -79 -110 -170 -60 -91 -110 -167 -110 -170 0 -3 65 -5 145 -5 l145 0
11 26 c5 15 7 29 4 32 -3 3 -5 0 -5 -6 0 -28 -59 -43 -156 -40 l-97 3 110 165
c60 91 112 170 115 175 4 6 -43 10 -133 10 l-139 0 1 -30z"/>
<path d="M3984 4501 c-62 -28 -97 -80 -102 -152 -6 -75 1 -101 39 -143 87 -99
277 -85 344 26 30 51 28 153 -5 201 -53 78 -183 110 -276 68z m166 -13 c110
-56 130 -200 41 -289 -51 -52 -113 -61 -178 -27 -136 69 -119 285 26 328 43
14 65 11 111 -12z"/>
<path d="M5610 4498 c-52 -27 -85 -71 -94 -127 -22 -137 60 -231 199 -231 61
0 129 23 152 52 7 8 15 30 18 49 l6 34 -14 -31 c-45 -96 -186 -121 -267 -48
-104 94 -56 286 78 309 72 12 151 -26 176 -85 3 -8 3 3 0 25 -6 44 -13 50 -64
65 -61 17 -142 12 -190 -12z"/>
<path d="M6565 4343 c-44 -96 -86 -179 -95 -183 -10 -7 -1 -9 30 -10 32 0 41
3 33 11 -8 8 -6 24 9 60 l21 49 79 0 79 0 20 -47 c11 -25 18 -52 15 -60 -4 -9
6 -13 35 -13 l40 0 -20 28 c-11 15 -50 95 -87 177 -36 83 -69 153 -73 157 -3
3 -42 -73 -86 -169z m115 27 c16 -40 30 -74 30 -76 0 -2 -31 -4 -70 -4 l-69 0
20 48 c11 26 27 62 35 81 8 19 16 32 19 29 2 -2 18 -37 35 -78z"/>
<path d="M7942 4499 c-59 -29 -94 -78 -100 -139 -10 -104 28 -173 113 -206 65
-24 161 -16 213 18 82 55 107 180 51 263 -53 78 -186 109 -277 64z m168 -11
c110 -56 130 -200 41 -289 -28 -28 -48 -39 -84 -44 -162 -24 -253 192 -130
308 53 50 108 57 173 25z"/>
<path d="M8398 4504 c-30 -16 -42 -45 -36 -90 2 -20 19 -41 58 -72 102 -82
110 -91 110 -121 0 -85 -145 -92 -169 -8 l-9 32 -1 -43 c-1 -37 2 -44 25 -52
14 -6 47 -10 74 -10 38 0 55 6 80 26 28 24 31 32 28 72 -3 42 -7 49 -58 90
-102 82 -110 90 -110 115 0 31 42 67 77 67 13 0 35 -11 48 -25 l25 -24 0 29
c0 30 0 30 -57 30 -32 -1 -70 -7 -85 -16z"/>
<path d="M8938 4349 c2 -121 0 -174 -9 -185 -9 -12 -6 -14 22 -14 26 0 30 3
21 12 -15 15 -17 271 -2 266 5 -1 77 -67 159 -145 82 -79 151 -143 153 -143 2
0 1 74 0 164 -3 108 0 171 8 185 10 19 8 21 -22 21 -25 0 -29 -3 -20 -12 13
-13 18 -268 6 -268 -4 0 -75 65 -159 145 -84 80 -154 145 -156 145 -2 0 -3
-77 -1 -171z"/>
<path d="M2229 4496 c8 -10 11 -64 9 -180 l-3 -166 25 0 25 0 -3 176 -3 177
56 -5 c70 -6 97 -29 97 -84 0 -48 -37 -84 -86 -84 l-33 0 41 -44 c22 -25 59
-65 82 -90 30 -34 48 -46 68 -46 28 0 28 0 8 18 -25 21 -125 143 -120 146 1 1
16 7 31 14 64 28 69 135 7 167 -41 21 -218 22 -201 1z"/>
<path d="M2630 4491 c5 -11 10 -74 10 -141 0 -139 11 -173 65 -196 54 -22 136
-18 176 9 52 35 59 58 59 198 0 84 4 129 12 137 9 9 5 12 -20 12 -29 0 -32 -2
-22 -19 14 -27 12 -218 -3 -261 -33 -96 -178 -107 -221 -16 -20 42 -23 265 -4
284 9 9 4 12 -25 12 -34 0 -37 -2 -27 -19z"/>
<path d="M6020 4491 c5 -11 10 -83 10 -161 0 -78 -5 -150 -10 -161 -10 -17 -7
-19 25 -19 32 0 35 2 25 19 -5 11 -10 49 -10 86 l0 66 118 -3 117 -3 3 -62 c2
-35 -2 -72 -8 -83 -10 -18 -8 -20 27 -20 29 0 34 3 25 12 -8 8 -12 60 -12 168
0 108 4 160 12 168 9 9 4 12 -25 12 -35 0 -37 -2 -27 -20 6 -11 10 -51 8 -88
l-3 -67 -115 0 -115 0 -3 67 c-2 37 2 77 8 88 10 18 8 20 -25 20 -32 0 -35 -2
-25 -19z"/>
<path d="M6948 4498 c8 -8 12 -60 12 -168 0 -108 -4 -160 -12 -168 -9 -9 -4
-12 23 -12 l34 0 -3 176 -3 177 56 -5 c70 -6 97 -29 97 -84 0 -48 -37 -84 -86
-84 l-33 0 41 -44 c22 -25 59 -65 82 -90 30 -34 48 -46 68 -46 28 0 28 0 8 18
-24 20 -122 138 -122 147 0 3 7 5 15 5 31 0 65 47 65 89 0 53 -7 69 -41 86
-36 19 -220 22 -201 3z"/>
<path d="M7368 4498 c8 -8 12 -60 12 -168 0 -108 -4 -160 -12 -168 -9 -9 17
-12 118 -12 115 0 133 3 169 23 116 64 110 259 -9 316 -36 18 -61 21 -166 21
-96 0 -121 -3 -112 -12z m235 -12 c74 -31 111 -118 88 -203 -23 -90 -77 -123
-196 -123 l-75 0 0 170 0 170 75 0 c42 0 90 -6 108 -14z"/>
<path d="M8704 4494 c13 -13 16 -42 16 -160 0 -81 -5 -154 -10 -165 -10 -17
-7 -19 27 -19 29 0 34 3 25 12 -15 15 -17 301 -2 329 10 17 7 19 -30 19 -38 0
-40 -1 -26 -16z"/>
<path d="M2010 3870 c0 -6 123 -10 350 -10 227 0 350 4 350 10 0 6 -123 10
-350 10 -227 0 -350 -4 -350 -10z"/>
<path d="M2492 3650 c-35 -90 -104 -245 -113 -256 -9 -11 -6 -14 14 -14 18 0
25 4 21 13 -2 7 2 30 11 50 15 37 16 37 74 37 l59 0 13 -50 c11 -42 17 -50 36
-50 19 0 21 3 13 18 -6 9 -35 75 -65 147 -48 117 -55 127 -63 105z m37 -102
l21 -58 -50 0 c-28 0 -50 3 -50 7 0 19 45 121 51 115 4 -4 16 -33 28 -64z"/>
<path d="M5580 3538 c-30 -72 -61 -138 -68 -145 -11 -11 -9 -13 12 -13 18 0
26 5 26 17 0 9 5 32 12 50 12 32 14 33 69 33 l57 0 16 -41 c9 -22 14 -45 11
-50 -4 -5 8 -9 26 -9 30 0 31 1 17 18 -8 9 -34 64 -57 122 -70 171 -59 169
-121 18z m79 22 c12 -30 21 -58 21 -62 0 -5 -22 -8 -50 -8 -27 0 -50 2 -50 4
0 2 7 21 16 42 9 22 20 50 25 63 12 29 12 29 38 -39z"/>
<path d="M3429 3607 c-95 -64 -57 -212 60 -232 53 -9 124 22 145 64 23 43 20
103 -5 135 -47 59 -138 75 -200 33z m157 -21 c29 -29 34 -41 34 -83 0 -55 -17
-86 -62 -109 -86 -45 -181 51 -148 150 16 48 53 76 102 76 32 0 47 -7 74 -34z"/>
<path d="M3798 3614 c-61 -33 -79 -138 -32 -193 66 -79 224 -54 224 35 0 21
-5 34 -13 34 -9 0 -12 -11 -9 -34 3 -29 -1 -37 -24 -53 -41 -27 -106 -24 -138
6 -54 50 -53 148 1 191 35 27 101 27 137 -1 22 -17 26 -18 26 -4 0 34 -120 48
-172 19z"/>
<path d="M4156 3522 c-27 -59 -56 -115 -64 -124 -14 -17 -13 -18 12 -18 15 0
24 4 21 10 -3 5 1 23 10 40 14 28 20 30 69 30 51 0 55 -1 65 -31 6 -17 8 -35
5 -40 -3 -5 9 -9 27 -9 30 0 31 1 17 18 -8 9 -36 65 -63 125 -26 59 -49 107
-49 107 -1 0 -23 -49 -50 -108z m93 -44 c1 -5 -19 -8 -44 -8 -52 0 -54 5 -24
70 l21 45 24 -50 c12 -27 23 -53 23 -57z"/>
<path d="M4832 3613 c-41 -20 -62 -59 -62 -117 0 -115 151 -166 238 -80 27 27
32 39 32 78 0 26 -7 60 -15 75 -28 56 -125 78 -193 44z m126 -7 c46 -24 70
-88 52 -140 -17 -53 -54 -81 -107 -81 -38 0 -49 5 -73 32 -91 102 10 250 128
189z"/>
<path d="M5157 3612 c-32 -35 -21 -67 36 -112 63 -50 71 -64 57 -90 -22 -42
-91 -34 -110 13 -9 20 -9 19 -7 -8 2 -25 7 -31 39 -38 57 -14 92 8 96 58 2 38
0 42 -53 82 -55 43 -66 68 -43 91 7 7 24 12 38 12 14 0 31 -5 38 -12 9 -9 12
-8 12 5 0 25 -81 24 -103 -1z"/>
<path d="M5876 3614 c-9 -8 -16 -29 -16 -45 0 -24 10 -37 55 -72 43 -33 55
-48 55 -70 0 -55 -87 -58 -110 -5 -9 21 -9 21 -7 -7 2 -25 7 -31 39 -38 55
-13 92 8 96 54 3 33 -2 41 -52 84 -56 47 -67 70 -44 93 18 18 65 15 77 -5 9
-16 10 -16 11 5 0 19 -5 22 -44 22 -27 0 -51 -6 -60 -16z"/>
<path d="M6112 3614 c-24 -17 -29 -52 -9 -75 6 -9 33 -33 60 -54 52 -41 59
-66 25 -89 -30 -21 -54 -20 -78 4 -16 16 -20 17 -20 5 0 -21 47 -37 82 -30 36
8 62 47 54 79 -3 13 -31 42 -61 65 -30 23 -55 50 -55 59 0 25 20 42 50 42 14
0 31 -5 38 -12 9 -9 12 -8 12 5 0 22 -66 23 -98 1z"/>
<path d="M6384 3614 c-95 -46 -81 -198 21 -232 57 -19 112 -7 152 33 28 28 33
40 33 79 0 26 -7 60 -15 75 -28 55 -125 78 -191 45z m133 -14 c86 -52 53 -200
-48 -216 -25 -4 -43 0 -69 18 -125 85 -12 277 117 198z"/>
<path d="M6743 3614 c-56 -28 -77 -101 -49 -169 18 -42 49 -63 106 -69 37 -5
40 -4 13 3 -72 19 -103 57 -103 127 0 100 105 151 180 87 28 -23 32 -24 28 -8
-8 43 -112 60 -175 29z"/>
<path d="M7266 3522 c-27 -59 -56 -115 -64 -124 -14 -17 -13 -18 12 -18 15 0
25 4 22 9 -3 4 0 22 7 40 11 30 14 31 68 31 55 0 57 -1 68 -31 6 -17 8 -35 5
-40 -3 -5 9 -9 27 -9 30 0 31 1 17 18 -8 9 -36 65 -63 125 -26 59 -49 107 -49
107 -1 0 -23 -49 -50 -108z m93 -44 c1 -5 -19 -8 -44 -8 -52 0 -54 5 -24 70
l21 45 24 -50 c12 -27 23 -53 23 -57z"/>
<path d="M7942 3613 c-41 -20 -62 -59 -62 -117 0 -115 151 -166 238 -80 27 27
32 39 32 79 0 26 -8 60 -17 76 -33 55 -123 76 -191 42z m128 -8 c18 -9 34 -30
45 -58 14 -36 14 -48 3 -82 -28 -84 -123 -109 -180 -46 -90 100 14 247 132
186z"/>
<path d="M8267 3612 c-32 -35 -21 -67 36 -112 63 -50 71 -64 57 -90 -22 -42
-91 -34 -110 13 -9 20 -9 19 -7 -8 2 -25 7 -31 39 -38 57 -14 92 8 96 58 2 38
0 42 -53 82 -55 43 -66 68 -43 91 7 7 24 12 38 12 14 0 31 -5 38 -12 9 -9 12
-8 12 5 0 25 -81 24 -103 -1z"/>
<path d="M2748 3515 c3 -73 0 -110 -8 -120 -11 -13 -1 -15 70 -15 132 0 170
29 170 131 0 42 -5 55 -29 80 -19 19 -39 29 -58 29 l-28 -1 32 -14 c70 -30 83
-134 23 -187 -26 -24 -39 -28 -91 -28 l-60 0 3 115 c3 97 1 115 -12 115 -13 0
-14 -17 -12 -105z"/>
<path d="M3105 3533 c22 -49 48 -104 56 -123 l16 -35 59 123 c49 101 56 122
42 122 -10 0 -18 -6 -18 -12 -1 -7 -18 -53 -40 -103 l-39 -90 -14 35 c-48 115
-64 159 -59 164 3 3 -6 6 -20 6 l-24 0 41 -87z"/>
<path d="M4435 3500 l0 -120 80 0 c62 0 87 5 112 20 38 23 59 80 49 133 -8 41
-56 87 -89 86 l-22 0 21 -9 c58 -23 82 -107 49 -171 -19 -37 -50 -49 -121 -49
l-55 0 3 115 c3 97 1 115 -12 115 -12 0 -15 -20 -15 -120z"/>
<path d="M7045 3500 c0 -113 1 -120 20 -120 19 0 20 6 17 120 -3 105 -5 120
-20 120 -15 0 -17 -14 -17 -120z"/>
<path d="M7545 3500 l0 -120 78 0 c51 0 88 5 108 16 32 16 59 66 59 109 0 54
-51 116 -95 114 -19 0 -19 0 1 -9 58 -23 82 -107 49 -171 -19 -37 -50 -49
-121 -49 l-55 0 3 115 c3 97 1 115 -12 115 -12 0 -15 -20 -15 -120z"/>
<path d="M6913 3426 c-4 -8 -22 -22 -38 -30 -18 -10 -23 -16 -13 -16 20 0 76
46 66 55 -3 4 -10 0 -15 -9z"/>
</g>
</svg>
